<?xml version="1.0" encoding="UTF-8"?>
<!DOCTYPE svg PUBLIC "-//W3C//DTD SVG 1.1//EN" "http://www.w3.org/Graphics/SVG/1.1/DTD/svg11.dtd">
<!-- Creator: CorelDRAW X8 -->
<svg xmlns="http://www.w3.org/2000/svg" xml:space="preserve" width="150mm" height="100mm" version="1.1" style="shape-rendering:geometricPrecision; text-rendering:geometricPrecision; image-rendering:optimizeQuality; fill-rule:evenodd; clip-rule:evenodd"
viewBox="0 0 15000 10000"
 xmlns:xlink="http://www.w3.org/1999/xlink">
 <defs>
  <style type="text/css">
   <![CDATA[
    .str0 {stroke:#6BB866;stroke-width:20}
    .str1 {stroke:#DAE3E9;stroke-width:7.62}
    .fil0 {fill:none}
    .fil5 {fill:#DAE3E9}
    .fil1 {fill:#163041}
    .fil3 {fill:#163142}
    .fil2 {fill:#173142}
    .fil4 {fill:#233C50}
   ]]>
  </style>
 </defs>
 <g id="Warstwa_x0020_1">
  <metadata id="CorelCorpID_0Corel-Layer"/>
  <line class="fil0 str0" x1="3569" y1="9774" x2="11773" y2= "449" />
  <line class="fil0 str0" x1="13880" y1="5170" x2="1461" y2= "5053" />
  <line class="fil0 str0" x1="11795" y1="9753" x2="3546" y2= "469" />
  <g id="_1941889953376">
   <path class="fil1" d="M11920 6182l204 222c-56,117 -247,300 -371,379l-207 -237 374 -364zm-564 1066l1116 0 -1 -1367 -1114 0 -1 1367z"/>
   <path class="fil1" d="M12625 7249c185,-18 241,-45 254,-230 9,-138 -2,-326 -2,-470 1,-528 72,-639 -254,-668l2 1368z"/>
   <path class="fil1" d="M11207 5899c-352,-47 -255,384 -255,686 -1,294 -88,688 255,647l0 -1333z"/>
   <path class="fil1" d="M11473 5752c160,-4 127,-45 145,-72l24 -53c3,-7 6,-20 12,-29l435 0c222,21 74,14 120,60 87,89 -139,67 134,96 27,-35 58,55 47,-148 -16,-319 -859,-157 -859,-157 -113,55 -111,210 -58,303z"/>
  </g>
  <g id="_1941889950336">
   <g>
    <path class="fil2" d="M7749 6536c-88,-40 -673,-538 -782,31l459 142c-251,124 -497,171 -342,588 152,-28 392,-252 566,-340 -30,416 -184,907 -113,971 73,67 219,15 299,-20 68,-311 9,-629 30,-939 85,101 370,449 475,476 77,-103 128,-244 75,-392 -45,-129 -159,-143 -283,-245l555 -52c-47,-515 -543,-279 -608,-259 75,-152 178,-161 193,-310 -364,-132 -447,56 -524,349z"/>
    <path class="fil2" d="M6812 8197c300,187 1501,190 1810,0 -66,-176 -424,-286 -614,-311 -87,142 -98,201 -350,204 -257,3 -231,-95 -356,-194 -95,43 -184,70 -286,123 -137,71 -162,74 -204,178z"/>
   </g>
  </g>
  <g id="_1941889950880">
   <g>
    <polygon class="fil2" points="2487,5801 2450,5801 2450,6444 2487,6444 2487,6481 3810,6481 3810,6444 3848,6444 3848,6406 3886,6406 3886,6368 3924,6368 3924,6292 3962,6292 3962,6255 3999,6255 3999,6217 4037,6217 4037,6028 3999,6028 3999,5990 3962,5990 3962,5952 3924,5952 3924,5877 3886,5877 3886,5839 3848,5839 3848,5801 3810,5801 3810,5763 2487,5763 "/>
    <polygon class="fil2" points="2941,7427 3357,7427 3357,6595 2941,6595 "/>
    <polygon class="fil2" points="2979,5461 2941,5461 2941,5650 3357,5650 3357,5461 3319,5461 3319,5423 2979,5423 "/>
   </g>
  </g>
  <g id="_1941889949024">
   <path class="fil1" d="M3158 1911c251,-121 397,293 157,380 -259,94 -434,-247 -157,-380zm68 990c520,-206 827,-1303 31,-1333 -751,-28 -694,1005 -31,1333z"/>
   <path class="fil1" d="M2742 2657c-123,84 -199,426 -136,568 128,47 1122,52 1225,-2 93,-116 2,-480 -112,-562 -134,22 -272,360 -495,356 -214,-5 -329,-287 -482,-360z"/>
  </g>
  <g id="_1941889949824">
   <path class="fil1" d="M7476 1852l339 6 -22 437 -322 -13 5 -430zm-660 -154c159,43 276,-35 276,132l-256 50 -7 107 264 46c1,194 -107,74 -268,163 -16,236 230,-22 273,201 -137,125 -265,-40 -278,157 141,72 1573,72 1691,-4 -37,-168 -72,-81 -273,-117 -13,-230 86,-69 269,-159 -35,-283 -204,38 -276,-213 176,-130 274,55 267,-172 -144,-54 -143,18 -267,-74 53,-191 82,-23 238,-137l-795 -498c-130,22 -831,413 -858,518z"/>
   <path class="fil1" d="M6740 1491c190,25 709,-347 898,-463 238,97 673,481 895,464 35,-162 3,-134 -145,-219 -80,-45 -163,-96 -241,-143 -663,-404 -362,-364 -1239,134 -142,81 -190,82 -168,227z"/>
  </g>
  <g id="_1941889947776">
   <path class="fil3" d="M4212 2420c555,-135 760,733 198,858 -573,128 -759,-722 -198,-858zm-31 -146c-791,194 -488,1327 270,1152 748,-172 477,-1336 -270,-1152z"/>
   <path class="fil3" d="M4358 2898c-103,15 -114,10 -92,-92 98,-19 103,-11 92,92zm48 -156c-54,-51 -264,-134 -333,-129 -10,66 79,283 126,336 42,49 282,137 351,142 -7,-75 -91,-300 -144,-349z"/>
   <path class="fil3" d="M4319 2618c50,-52 51,-60 5,-115 -95,21 -90,94 -5,115z"/>
   <path class="fil3" d="M4324 3111c-100,19 -82,96 -7,114 54,-49 54,-58 7,-114z"/>
   <path class="fil3" d="M4668 2845c-56,-43 -64,-43 -113,9 42,83 98,94 113,-9z"/>
   <path class="fil3" d="M4060 2844c-59,-41 -66,-43 -113,11 45,81 98,95 113,-11z"/>
  </g>
  <g id="_1941889944928">
   <g>
    <path class="fil4" d="M12010 2530c-248,-46 -738,-14 -1016,-17 -444,-6 -371,-51 -372,664 0,139 -16,395 -3,519 23,221 140,164 376,160 271,-4 781,30 1019,-21l-4 -1305z"/>
    <path class="fil1" d="M12678 3829c114,-410 -36,-289 -196,-449 -282,-280 174,-454 214,-557 139,-363 -277,-324 -554,-299l-2 1327 538 -22z"/>
   </g>
   <g>
    <g>
     <path class="fil5" d="M11277 3564c35,-11 81,-27 95,-61 39,-93 81,-233 122,-339 28,-70 10,-49 79,-80 57,-26 167,-71 189,-119 21,-48 -27,-69 -67,-73 -86,-9 -150,33 -234,74 -73,35 -136,68 -208,100 -35,16 -67,33 -103,50 -20,9 -35,15 -54,24 -16,8 -34,21 -50,27 -30,11 -87,-16 -120,-27 -17,-5 -40,-14 -58,-19 -33,-8 -32,6 -59,13l90 101c57,59 64,71 126,66 69,-6 160,-34 223,-61 20,-9 41,-25 62,-29 -6,62 -40,310 -33,353z"/>
     <path class="fil5 str1" d="M11017 2955c10,13 124,89 142,97 22,10 54,-16 79,-27 25,-11 59,-23 78,-40 -23,-12 -200,-78 -233,-68 -19,5 -56,23 -66,38z"/>
    </g>
   </g>
  </g>
 </g>
</svg>
